<?xml version="1.0" encoding="utf-8"?>
<!-- Svg Vector Icons : http://www.onlinewebfonts.com/icon -->
<!DOCTYPE svg PUBLIC "-//W3C//DTD SVG 1.1//EN" "http://www.w3.org/Graphics/SVG/1.1/DTD/svg11.dtd">
<svg version="1.1" xmlns="http://www.w3.org/2000/svg" xmlns:xlink="http://www.w3.org/1999/xlink" x="0px" y="0px" viewBox="0 0 256 256" enable-background="new 0 0 256 256" xml:space="preserve">
<metadata> Svg Vector Icons : http://www.onlinewebfonts.com/icon </metadata>
<g><g><g><path fill="#000000" d="M16.1,51.3c-2.1,0.9-5.2,4.7-5.7,6.9c-0.3,1-0.4,32.7-0.4,70.6v68.7l1.1,2c1.2,2.3,2.8,3.9,5.1,5c1.5,0.8,11.4,0.8,111.8,0.8h110.2l2.2-1.2c1.2-0.7,3-2.2,3.8-3.4l1.5-2.2l0.2-70.1l0.1-70.1l-1.1-2.3c-0.7-1.2-2-3-3.1-3.8l-2-1.6l-111.1-0.1C36.9,50.6,17.4,50.7,16.1,51.3z M97.6,74.2c9.5,2.5,17.7,7.2,24.7,14l4,3.9l3.2-3.3c16.8-17,42.1-21.2,63.8-10.5c12.3,6.1,23,18,27.3,30.6c0.9,2.6,0.9,2.7,0,2.7c-0.8,0-1,0.6-1.3,2.9c-0.2,1.6-0.5,3.6-0.6,4.3l-0.3,1.4l-1.6-1c-4-2.4-9.3-0.2-11.6,4.9c-1.4,3.1-1.3,8.8,0.2,11c2.2,3.3,5.7,3.9,9.4,1.7c2.1-1.3,2.2-1.3,2.2-0.3c0,0.9,0.3,1,3.1,1h3.1l-0.3,1.4c-1.6,7.3-4.1,13.2-8,19.2c-16.5,25.5-50.9,32.7-76,16.1c-4.5-3-10.8-8.3-10.8-9.2c0-0.3,5.6-0.5,13.2-0.5h13.2v-1.8V161h-16.8h-16.8v1.8c0,1.7,0.1,1.8,1.8,1.8c1,0,1.8,0.2,1.8,0.5c0,0.3-1.5,1.8-3.3,3.5c-19.3,18.1-49.6,19.5-70.6,3.3c-9.6-7.4-16.2-17.2-19.8-29.3l-1.2-3.9l1.2-9.9c0.7-5.4,1.3-9.8,1.4-9.7c0.2,0.1,0.7,4.3,1.3,9.3l1.1,9.1l3.1,0.2l3.1,0.1l3.6-9.4c1.9-5.2,3.6-9.4,3.7-9.3c0.2,0.1-1.6,14-2.1,17.2l-0.2,1.4h3.3c1.8,0,3.3-0.1,3.3-0.2c0.1-0.1,0.8-5.9,1.7-13l1.7-12.9l-5.3,0.2l-5.3,0.2l-2.8,7.5c-1.6,4.1-3,7.4-3,7.3c-0.1-0.1-0.5-3-1-6.5c-1.1-9.4-0.8-8.6-4.1-8.6c-2.9,0-2.9,0-2.5-1.4c0.6-2.4,4.9-10.9,7.2-14.2c8.8-12.3,22.3-20.7,37.2-23.1C81.2,72.1,91.9,72.7,97.6,74.2z M216.9,124.5c0.4,0.4,0.6,1.7,0.6,3c0,3.9-2.7,6.4-5.1,4.7c-1-0.7-1.1-1.2-0.9-3.5c0.2-1.7,0.6-3.2,1.2-3.8C213.7,123.8,215.9,123.5,216.9,124.5z"/><path fill="#000000" d="M120.7,96.6v1.8h16.8h16.8v-1.8v-1.8h-16.8h-16.8V96.6z"/><path fill="#000000" d="M117.2,103.8v1.8H134h16.8v-1.8V102H134h-16.8V103.8z"/><path fill="#000000" d="M113.2,111.2l0.2,1.7l17,0.2l16.9,0.1v-1.8v-1.8h-17.1h-17.1L113.2,111.2z"/><path fill="#000000" d="M153.1,112c-2.6,1-5,2.9-6.4,5c-1,1.6-1.3,1.7-3,1.5c-1.6-0.2-2.2,0-3.6,1.1c-1.6,1.3-1.6,1.3-1.6,0.3c0-1-0.3-1.1-3.3-1.1c-1.8,0-3.3,0.1-3.3,0.2c0,0.5-2,15.9-2.3,17.3l-0.3,1.4l3.7-0.2l3.7-0.2l0.6-4.6c1-7.1,2.3-9.3,5.1-8.7c1.4,0.3,1.4,0.5,1.5,3.6c0.1,4.1,1.9,7.5,5,9.1c3,1.6,10.3,1.5,13.3,0c2.3-1.3,4.9-4.2,5.7-6.3c0.5-1.3,0.4-1.4-2.8-2.4L162,127l-0.8,1.4c-1.7,3.4-5.5,4.6-7.9,2.6c-1.1-0.9-1.2-1.4-1.2-4.7c0-4.4,1.2-7.2,3.3-8.3c2.8-1.5,5.7-0.7,6.6,1.6c0.3,0.7,0.8,1.2,1.1,1c0.4-0.1,1.9-0.5,3.6-0.9c2.7-0.6,2.9-0.7,2.6-1.7c-1-3.3-3-5.4-5.8-6.4C161.2,110.9,155.6,111,153.1,112z"/><path fill="#000000" d="M102.6,113.5c-3.5,1.7-3.7,1.9-3.7,3.5c0,1.6-0.2,1.7-1.5,1.7s-1.5,0.2-1.5,1.7c0,2.2-0.5,2.7-1.2,1.3c-1.3-2.5-3.1-3.2-8.1-3.2c-6.8,0-9.8,2-9.8,6.5c0,2.8,1.6,4,6.8,5.1c4.4,1,5.6,1.9,3.9,3.2c-1.4,1.1-3.6,0.9-4.8-0.4c-0.9-1-1.4-1.1-4.1-0.9c-1.7,0.1-3.3,0.4-3.4,0.6c-0.7,0.7,1,3.5,2.5,4.3c2,1.1,8.1,1.4,10.9,0.7c3.4-0.9,5.8-3.4,6.1-6.3c0.5-3.8-1.3-5-8.8-6.3c-2-0.4-2.5-0.7-2.5-1.5c0-0.8,0.4-1.1,2-1.2c1.3-0.1,2.2,0.1,2.5,0.6c0.5,0.6,1.5,0.8,5,0.7c2.4,0,4.5,0.1,4.7,0.3c0.2,0.2,0,2.5-0.3,5.2c-0.7,5.5-0.3,7.4,1.8,8.4c1.4,0.6,4.3,0.7,6.8,0.3c1.5-0.3,1.6-0.5,1.6-2.8v-2.4l-1.6,0.3l-1.6,0.3l0.3-4.2c0.2-2.3,0.5-4.4,0.6-4.7c0.2-0.3,1.1-0.5,2-0.5c1.8,0,2.3-0.8,2.3-3.7c0-1.2-0.2-1.4-1.8-1.4h-1.8l0.4-3.6c0.2-2,0.3-3.6,0.2-3.5C106.3,111.7,104.6,112.5,102.6,113.5z"/><path fill="#000000" d="M60.4,119c-2.1,0.8-4.8,3.4-4.8,4.6c0,0.5,1,0.8,3.2,1c2.7,0.3,3.3,0.2,4.2-0.7c1.5-1.4,5-1.2,5,0.3c0,1.1-1.3,1.6-7.6,3.1c-4,1-6.2,2.6-6.7,5.2c-0.9,4.9,5.4,7.5,11.1,4.6c2.2-1.1,2.4-1.1,2.6-0.3c0.3,0.8,0.9,1,3.6,1h3.3l-0.1-1.9c0-1.1,0.3-4.4,0.6-7.3c0.7-6,0.4-7.5-1.8-8.9C71.3,118.3,63.2,118,60.4,119z M67.8,130c0,0.6-0.7,1.7-1.5,2.5c-1.2,1.2-1.9,1.5-3.2,1.4c-1.5-0.2-1.7-0.3-1.7-1.7c0-1.4,0.3-1.6,2.5-2.4C67.3,128.8,67.8,128.8,67.8,130z"/><path fill="#000000" d="M115.8,118.9c-4.5,1.7-7.3,5.9-7.3,10.8c0,5.6,3.1,8.4,9.3,8.4c3.8,0,6.8-1,9-2.9c1.2-1,2.1-1.9,2.1-2.1c0-0.3-1.5-0.6-3.4-0.7c-2.8-0.2-3.7-0.1-4.4,0.6c-1.1,1-3.6,1-4.6,0.1c-0.5-0.4-0.8-1.2-0.8-1.8V130h7.1h7.1v-3.2c0-3.7-1.1-6-3.7-7.3C124.2,118.4,118,118.1,115.8,118.9z M122.2,123.5c0.3,0.3,0.6,1,0.6,1.7c0,1.2-0.2,1.2-3.3,1.2c-3.5,0-3.9-0.4-2.6-2.1C118.1,122.5,120.5,122.2,122.2,123.5z"/><path fill="#000000" d="M175.5,118.7c-2.2,0.6-4.3,2-5.1,3.7c-0.5,0.9-0.7,1.6-0.6,1.7c0.1,0,1.6,0.3,3.3,0.4c2.7,0.3,3.3,0.2,4-0.7c1.2-1.3,5.1-1.4,5.6-0.2c0.5,1.3-0.1,1.6-5.2,2.7c-7.4,1.6-9.2,3-9.2,6.9c0,1.6,0.3,2.4,1.3,3.4c1.8,1.7,7.1,1.7,10.3,0.1c2.1-1.1,2.1-1.1,2.1-0.2c0,0.9,0.4,1,3.5,1h3.4v-3c0-1.6,0.3-5.1,0.5-7.7c0.4-4.5,0.4-4.9-0.7-6.2c-0.6-0.8-2-1.6-3-1.9C183.4,118.2,177.8,118.2,175.5,118.7z M181.8,130c0,1.6-0.9,2.8-2.5,3.5c-2,0.8-4.1,0.3-4.1-1c0-1.2,0.9-1.9,3.4-2.8C181.3,128.8,181.8,128.8,181.8,130z"/><path fill="#000000" d="M200.1,119.7l-1.5,1.5V120c0-1.2-0.2-1.2-3.3-1.2c-2.3,0-3.3,0.2-3.3,0.6c-0.1,0.4-0.6,4.6-1.2,9.4l-1.2,8.8h3.7h3.7l0.4-3.6c0.7-7.3,2.4-10.6,5.2-10c1.3,0.3,1.6,0.1,2.8-2.2c1.4-2.4,1.4-2.5,0.5-3.1C203.9,117.8,201.7,118.2,200.1,119.7z"/><path fill="#000000" d="M113.5,146.6c-0.2,0.2-0.4,1-0.4,1.8v1.4h17.1h17.1v-1.8v-1.8h-16.7C121.3,146.3,113.6,146.4,113.5,146.6z"/><path fill="#000000" d="M117.2,155.7v1.8H134h16.8v-1.8v-1.8H134h-16.8V155.7z"/></g></g></g>
</svg>