<!--?xml version="1.0" encoding="utf-8"?-->
<!-- Svg Vector Icons : http://www.onlinewebfonts.com/icon -->

<svg version="1.1" xmlns="http://www.w3.org/2000/svg" xmlns:xlink="http://www.w3.org/1999/xlink" x="0px" y="0px" viewBox="0 0 256 256" enable-background="new 0 0 256 256" xml:space="preserve">
<metadata> Svg Vector Icons : http://www.onlinewebfonts.com/icon </metadata>
<g><g><g id="c2be471c56fc5b4dd571614bb3052f50"><path fill="#FFFFFF" data-title="Layer 0" xs="0" d="M206.1,56.2c0,0-0.2-1.1-0.8-1.4c-0.6-0.4-1.3-0.5-1.3-0.5l-19-1.4l-14-13.9c-0.5-0.4-1.1-0.7-1.8-0.8c-1.5-0.3-3.5,0-3.9,0.1l-7.2,2.2c-3.2-9.3-7.4-15.9-12.8-19.7c-4-2.8-8.4-4-13.1-3.7c-1-1.3-2.1-2.5-3.3-3.4c-5.2-4.2-12-4.9-20.1-2C84.8,20.6,74.5,52,70.8,67.7l-21.1,6.5c0,0-5,1.4-6.1,2.8c-1.3,1.5-1.5,5.7-1.5,5.7L24.1,220.8L159,246l72.8-15.8L206.1,56.2z M131.4,48.9L108,56.1c3.1-12.1,9-24.5,20.4-29.3C130.8,33,131.4,41.5,131.4,48.9z M111.8,19.4c4.9-1.8,8.7-1.7,11.6,0.2c-15.2,6.9-21.9,24.4-24.8,39.4l-18.7,5.8C84.1,49.8,93.4,26.1,111.8,19.4z M124.9,121.2c-1.1-0.5-2.3-1.1-3.8-1.6c-1.4-0.5-3-1-4.7-1.4c-1.7-0.4-3.5-0.7-5.4-0.9c-1.9-0.2-3.9-0.3-6-0.1c-1.9,0.1-3.6,0.5-5.1,1c-1.5,0.5-2.8,1.3-3.9,2.2s-1.9,2-2.5,3.3c-0.6,1.3-0.9,2.6-1,4.2c0,1.2,0.1,2.3,0.5,3.3c0.4,1.1,1,2.1,1.9,3.2c0.9,1.1,2,2.1,3.3,3.2c1.3,1.1,2.9,2.2,4.8,3.3c2.6,1.6,5.2,3.5,7.7,5.6c2.5,2.2,4.9,4.6,7,7.4c2.1,2.8,3.8,5.9,5,9.5c1.2,3.6,1.8,7.5,1.6,11.8c-0.3,7.1-1.9,13.2-4.4,18.2c-2.5,5-6,8.9-10.2,11.8c-4.1,2.8-8.9,4.5-14.1,5.2c-5,0.7-10.4,0.4-16-0.8c0,0-0.1,0-0.1,0c0,0-0.1,0-0.1,0c0,0-0.1,0-0.1,0c0,0-0.1,0-0.1,0c-2.6-0.6-5.1-1.4-7.5-2.4c-2.3-0.9-4.5-2-6.5-3.2c-2-1.2-3.8-2.4-5.3-3.6c-1.5-1.3-2.8-2.6-3.8-3.9l6.1-20.4c1,0.9,2.3,1.9,3.8,2.9c1.5,1,3.1,2.1,4.8,3.1c1.8,1,3.7,1.9,5.6,2.6c2,0.7,4,1.3,6,1.6c1.8,0.3,3.4,0.2,4.8-0.1c1.4-0.3,2.6-0.9,3.6-1.7c1-0.8,1.8-1.8,2.3-3c0.5-1.2,0.8-2.5,0.9-3.9c0.1-1.4-0.1-2.7-0.4-4c-0.4-1.3-0.9-2.5-1.8-3.8s-1.9-2.5-3.3-3.8c-1.3-1.3-3-2.6-4.9-4c-2.4-1.8-4.6-3.6-6.5-5.7c-1.9-2-3.7-4.2-5.1-6.6c-1.4-2.4-2.5-4.9-3.2-7.7c-0.7-2.8-1-5.8-0.9-9.1c0.2-5.5,1.3-10.5,3.2-15.1c1.9-4.6,4.5-8.7,7.8-12.2c3.3-3.6,7.4-6.7,12.1-9c4.8-2.4,10.4-4.1,16.5-4.9c2.8-0.4,5.6-0.6,8.1-0.6c2.6,0,5.1,0.1,7.3,0.4c2.3,0.3,4.4,0.7,6.2,1.3c1.9,0.5,3.5,1.2,4.8,1.8L124.9,121.2z M139.5,46.4c0-0.9,0-1.9-0.1-2.8c-0.3-7.2-1.3-13.4-2.9-18.3c1.8,0.2,3.5,0.8,5,1.9c4.2,3,7.3,9,9.4,15.7L139.5,46.4z"/></g></g></g>
</svg>